<svg width="12" height="12" viewBox="0 0 12 12" fill="none" xmlns="http://www.w3.org/2000/svg">
<path fill-rule="evenodd" clip-rule="evenodd" d="M5.75 11.5C2.574 11.5 0 8.926 0 5.75C0 2.574 2.574 0 5.75 0C8.926 0 11.5 2.574 11.5 5.75C11.5 8.926 8.926 11.5 5.75 11.5ZM5.75 1.514C3.411 1.514 1.514 3.411 1.514 5.75C1.514 8.09 3.411 9.986 5.75 9.986C8.089 9.986 9.986 8.09 9.986 5.75C9.986 3.411 8.089 1.514 5.75 1.514ZM5.498 8.341C4.795 9.002 3.735 7.945 4.439 7.283C4.993 6.762 5.547 6.241 6.1 5.72C5.55 5.217 4.999 4.715 4.449 4.211C3.735 3.56 4.796 2.504 5.507 3.153C6.248 3.83 6.989 4.506 7.73 5.183C8.024 5.452 8.016 5.971 7.73 6.241C6.986 6.941 6.241 7.641 5.498 8.341Z" fill="#454545"/>
</svg>
